<?xml version="1.0" standalone="no"?>
<!DOCTYPE svg PUBLIC "-//W3C//DTD SVG 20010904//EN"
 "http://www.w3.org/TR/2001/REC-SVG-20010904/DTD/svg10.dtd">
<svg version="1.0" xmlns="http://www.w3.org/2000/svg"
 width="1024.000000pt" height="1024.000000pt" viewBox="0 0 1024.000000 1024.000000"
 preserveAspectRatio="xMidYMid meet">

<g transform="translate(0.000000,1024.000000) scale(0.100000,-0.100000)"
fill="#000000" stroke="none">
<path d="M4815 7670 c4 -6 43 -36 88 -67 102 -71 251 -220 295 -294 44 -75 71
-155 83 -247 6 -50 9 -723 7 -1947 l-3 -1870 -22 -65 c-36 -104 -105 -179
-210 -228 l-58 -27 -460 0 -460 1 -135 35 c-159 43 -255 81 -366 147 -261 155
-472 414 -553 676 -34 109 -36 106 67 106 l88 0 18 -52 c26 -74 97 -217 137
-274 81 -119 243 -251 407 -333 55 -28 62 -29 53 -12 -6 11 -16 23 -22 27 -20
12 -131 168 -159 224 -31 63 -73 187 -92 275 -7 34 -13 124 -13 210 1 178 14
245 83 420 l48 120 -48 63 c-51 67 -60 89 -30 77 29 -12 109 -18 115 -8 11 18
-192 253 -219 253 -21 0 -214 -226 -214 -251 0 -5 18 -13 40 -19 22 -6 40 -14
40 -19 0 -12 -35 -57 -92 -118 -26 -28 -48 -56 -48 -61 0 -18 25 -30 65 -34
35 -3 42 -8 58 -40 9 -21 24 -38 32 -38 33 0 10 -31 -96 -130 l-111 -103 -44
24 c-79 43 -190 170 -126 144 24 -10 122 -21 155 -17 15 2 27 9 27 16 0 6 -36
52 -81 101 -79 89 -135 177 -124 195 4 6 19 3 37 -6 17 -9 57 -19 89 -21 48
-5 60 -3 65 11 7 19 -9 46 -92 148 -61 75 -100 136 -92 144 2 2 28 -5 56 -16
56 -22 107 -26 117 -10 6 10 -49 117 -132 252 -49 79 -101 138 -123 138 -5 0
-27 -24 -48 -52 -22 -29 -65 -82 -96 -116 -31 -35 -55 -69 -53 -75 6 -19 76
-20 102 -3 31 20 35 20 35 -2 0 -31 -56 -109 -145 -201 -47 -48 -82 -91 -78
-94 3 -4 40 -7 82 -7 58 0 84 5 109 20 18 11 34 20 37 20 2 0 -3 -21 -12 -47
-13 -37 -41 -73 -120 -154 -57 -58 -100 -109 -96 -112 12 -13 144 -7 180 8 20
8 38 13 41 11 2 -3 -6 -25 -18 -50 -13 -29 -58 -80 -118 -136 -70 -66 -93 -93
-85 -101 18 -18 167 -8 190 14 11 9 22 17 25 17 9 0 -4 -224 -14 -235 -5 -5
-53 -10 -106 -10 l-97 0 -3 -44 c-7 -95 54 -303 134 -461 147 -288 387 -500
676 -600 182 -62 107 -60 1839 -60 869 0 1579 2 1579 4 0 3 -30 52 -66 110
l-66 105 -331 3 c-321 3 -334 4 -390 26 -70 28 -153 107 -185 173 -13 26 -27
73 -32 105 -12 75 -13 1454 -1 1454 13 0 48 -49 133 -185 42 -66 120 -190 175
-275 346 -539 463 -721 598 -935 84 -132 188 -296 231 -365 44 -69 92 -146
107 -172 l28 -48 239 0 240 0 0 1735 c0 954 -4 1735 -8 1735 -5 0 -22 -24 -37
-52 -50 -94 -114 -176 -200 -255 -147 -138 -317 -220 -579 -278 -38 -8 -26
-18 55 -44 139 -46 242 -129 296 -239 26 -55 28 -65 34 -257 9 -288 6 -1320
-4 -1320 -10 0 -154 227 -380 595 -82 135 -171 279 -197 320 -26 41 -78 125
-115 185 -37 61 -94 151 -125 200 -31 50 -79 126 -105 170 -54 88 -296 467
-357 557 l-38 57 0 573 c0 478 3 584 16 638 62 263 371 386 718 285 125 -36
281 -168 349 -294 73 -135 96 -316 62 -483 -34 -164 -151 -337 -289 -427 -146
-95 -288 -131 -522 -131 l-144 0 0 -103 0 -104 243 -7 c349 -9 501 9 680 84
260 108 480 370 563 670 15 51 18 102 18 240 0 165 -1 180 -28 260 -89 267
-262 460 -511 572 -216 96 -237 98 -1228 98 -574 0 -836 -3 -832 -10z"/>
<path d="M3930 7650 c-9 -6 -10 -10 -3 -10 6 0 15 5 18 10 8 12 4 12 -15 0z"/>
<path d="M3696 7626 c5 -14 -1 -17 -61 -31 -16 -4 -75 -29 -131 -55 -84 -41
-112 -61 -167 -120 -37 -38 -67 -75 -67 -80 0 -6 -3 -9 -7 -9 -20 3 -26 -2
-13 -11 10 -6 11 -10 3 -10 -7 0 -13 -5 -13 -11 0 -14 -26 -40 -33 -33 -9 9
-47 -16 -47 -31 0 -10 -11 -15 -35 -15 -30 0 -39 -5 -56 -35 -15 -25 -28 -35
-45 -35 -19 0 -24 -5 -24 -27 0 -26 -1 -26 -15 -7 -9 12 -14 14 -15 6 0 -7 -5
-10 -10 -7 -16 10 -50 -5 -50 -21 0 -9 -11 -14 -35 -14 -28 0 -35 -4 -35 -20
0 -13 -7 -20 -20 -20 -13 0 -20 7 -20 20 0 13 -7 20 -20 20 -16 0 -20 -7 -20
-36 l0 -36 -40 7 c-26 4 -40 3 -40 -4 0 -6 -18 -11 -40 -11 -29 0 -40 -4 -40
-15 0 -25 -38 -18 -42 8 -2 12 -8 -18 -13 -68 -10 -111 5 -242 40 -344 l25
-74 -25 -81 c-89 -294 -85 -568 13 -762 61 -121 158 -214 322 -308 35 -21 98
-70 141 -110 94 -89 160 -124 318 -170 195 -58 267 -102 364 -222 28 -35 54
-64 58 -64 5 0 40 39 80 86 144 170 477 388 778 509 118 48 167 75 223 124
212 187 277 545 162 893 l-25 77 24 78 c43 137 52 192 51 338 -1 115 -5 150
-21 193 -15 40 -22 49 -27 36 -4 -10 -3 -20 2 -23 12 -9 36 -90 29 -98 -4 -3
-7 3 -7 15 0 13 -6 22 -15 22 -18 0 -20 -17 -2 -23 6 -2 9 -8 5 -12 -4 -4 -41
-2 -84 3 -62 9 -80 8 -90 -3 -8 -7 -14 -19 -14 -25 0 -7 -6 -6 -15 4 -8 8 -24
18 -35 21 -14 4 -20 15 -20 36 0 23 -4 29 -21 29 -16 0 -20 -5 -17 -18 4 -15
0 -17 -24 -14 -31 5 -49 22 -23 22 9 0 14 4 11 9 -3 5 -15 7 -26 4 -16 -4 -20
0 -20 19 0 20 -7 27 -38 36 -21 7 -47 21 -57 32 -10 11 -27 20 -38 20 -39 0
-87 23 -87 42 0 12 -8 18 -24 18 -31 0 -56 10 -56 22 0 12 -100 162 -110 166
-4 2 -27 21 -51 43 -24 22 -73 53 -109 70 -36 16 -72 33 -80 38 -9 5 -31 12
-50 16 -19 4 -44 15 -55 25 -19 18 -21 18 -69 -6 l-48 -24 -53 25 c-62 29 -66
30 -59 11z m219 -6 c3 -5 1 -10 -4 -10 -6 0 -11 5 -11 10 0 6 2 10 4 10 3 0 8
-4 11 -10z m-16 -191 c203 -35 353 -184 354 -354 1 -45 -4 -67 -15 -79 -15
-14 -18 -13 -42 15 -39 46 -137 116 -174 124 -18 3 -30 11 -26 16 3 5 -5 9
-18 9 -13 0 -52 6 -88 14 -54 11 -80 11 -155 0 -109 -15 -145 -24 -145 -34 0
-4 -7 -11 -16 -14 -9 -3 -12 -2 -8 5 8 14 -34 -10 -62 -36 -13 -11 -29 -25
-36 -31 -7 -6 -28 -27 -46 -48 -45 -52 -57 -38 -56 62 0 95 34 170 104 236
110 102 262 143 429 115z m-702 -195 c-3 -3 -12 -4 -19 -1 -8 3 -5 6 6 6 11 1
17 -2 13 -5z m-117 -88 c0 -2 -7 -9 -15 -16 -12 -10 -15 -10 -15 4 0 9 7 16
15 16 8 0 15 -2 15 -4z m-200 -121 c-14 -17 -30 -20 -30 -6 0 5 8 12 18 14 9
3 19 5 21 6 2 0 -2 -6 -9 -14z m329 -47 c4 -13 17 -51 28 -85 l21 -62 -34 -67
c-19 -37 -34 -75 -34 -83 0 -9 -5 -23 -10 -31 -8 -11 -9 -7 -4 15 5 28 4 27
-16 -9 -20 -36 -22 -53 -21 -164 2 -115 4 -128 30 -181 26 -50 81 -116 81 -97
0 4 21 -13 48 -39 52 -52 151 -105 197 -106 l30 -1 -40 -19 c-25 -12 -51 -17
-70 -13 -23 4 -27 3 -15 -6 12 -8 7 -9 -20 -5 -19 3 -44 6 -55 5 -81 -2 -149
6 -197 24 -26 10 -54 16 -62 13 -8 -3 -17 0 -19 8 -3 7 -20 16 -37 20 -58 13
-147 149 -175 267 -60 255 47 494 267 598 46 22 86 40 91 40 4 0 11 -10 16
-22z m783 -21 c55 -27 92 -54 135 -101 108 -115 157 -284 109 -376 -24 -45
-66 -90 -85 -90 -12 0 -11 3 3 13 18 13 18 14 0 14 -11 0 -26 -8 -35 -19 -9
-10 -22 -18 -29 -18 -7 0 -10 -6 -7 -14 4 -9 0 -12 -11 -10 -9 2 -43 5 -75 7
-42 2 -56 0 -53 -9 3 -7 -2 -10 -15 -7 -15 4 -17 8 -8 19 7 8 20 12 30 9 14
-5 17 -2 13 8 -3 9 3 16 16 20 11 3 19 9 18 14 -1 4 10 26 24 48 41 61 63 156
48 213 -18 71 -37 102 -65 102 -13 0 -27 -4 -30 -10 -3 -5 -15 -15 -27 -21
-15 -8 -19 -8 -14 0 4 6 3 11 -3 11 -5 0 -11 -4 -13 -9 -2 -5 -21 -6 -44 -2
-23 4 -49 4 -58 -1 -10 -5 -31 -5 -53 1 -31 9 -40 8 -50 -5 -10 -13 -13 -13
-25 4 -33 46 -76 34 -110 -31 -48 -93 -13 -228 78 -304 30 -26 40 -39 31 -45
-18 -11 -145 -10 -152 2 -3 6 -22 10 -41 10 -49 0 -99 48 -121 117 -15 47 -15
63 -5 126 30 171 152 312 322 368 14 5 70 7 126 6 94 -2 106 -5 176 -40z m523
-1 c149 -73 237 -185 271 -346 29 -136 -1 -309 -71 -409 -46 -68 -151 -153
-164 -134 -9 14 -91 3 -91 -12 0 -15 -69 -27 -148 -25 -82 2 -94 1 -88 -9 4
-5 -4 -6 -16 -3 -19 5 -20 7 -5 10 19 4 24 42 5 42 -7 1 1 7 18 14 56 24 181
163 224 249 44 85 54 163 25 187 -8 7 -15 18 -15 25 0 8 -5 15 -12 17 -7 3
-12 26 -12 55 -1 28 -4 49 -8 46 -5 -2 -8 1 -8 7 0 7 -14 46 -31 88 l-31 77
22 70 c12 39 24 76 26 83 5 18 9 16 109 -32z m-655 -1056 c25 -10 41 -19 36
-19 -13 -1 25 -41 39 -41 11 0 66 -33 150 -90 22 -15 58 -30 80 -34 76 -13 79
-15 51 -37 -39 -30 -93 -50 -124 -44 -20 4 -22 3 -8 -3 30 -13 -82 -45 -127
-37 -21 4 -37 3 -41 -4 -4 -6 -14 -11 -22 -11 -8 0 -12 5 -9 11 9 13 -67 0
-76 -13 -4 -6 -32 -6 -75 2 -38 6 -90 13 -116 14 -26 2 -54 11 -63 19 -9 9
-22 14 -31 10 -18 -7 -64 44 -64 73 0 15 17 28 68 53 89 44 226 128 248 152
21 23 27 23 84 -1z"/>
<path d="M3785 5890 c-3 -5 1 -10 9 -10 9 0 16 5 16 10 0 6 -4 10 -9 10 -6 0
-13 -4 -16 -10z"/>
<path d="M4166 5671 c-4 -5 3 -7 14 -4 23 6 26 13 6 13 -8 0 -17 -4 -20 -9z"/>
<path d="M3723 5593 c9 -2 23 -2 30 0 6 3 -1 5 -18 5 -16 0 -22 -2 -12 -5z"/>
<path d="M2691 7357 c-13 -21 -12 -21 5 -5 10 10 16 20 13 22 -3 3 -11 -5 -18
-17z"/>
<path d="M2657 7304 c-4 -4 -7 -14 -7 -23 0 -11 3 -12 11 -4 6 6 10 16 7 23
-2 6 -7 8 -11 4z"/>
<path d="M2634 7252 c-6 -4 -15 -18 -19 -32 -7 -21 -6 -22 7 -10 12 13 31 50
25 50 -1 0 -7 -4 -13 -8z"/>
<path d="M5020 7195 c0 -5 5 -17 10 -25 5 -8 10 -10 10 -5 0 6 -5 17 -10 25
-5 8 -10 11 -10 5z"/>
<path d="M2577 7110 c-3 -8 -8 -28 -11 -45 l-5 -30 15 34 c8 18 13 38 11 45
-3 7 -7 5 -10 -4z"/>
<path d="M4780 5229 c-558 -226 -921 -559 -1034 -952 -41 -141 -49 -205 -43
-370 5 -169 19 -238 73 -355 120 -264 338 -412 605 -412 279 0 506 161 649
463 55 115 71 183 77 327 9 217 -32 380 -176 719 -34 78 -70 178 -81 221 -27
104 -27 244 0 320 22 62 23 70 13 70 -5 0 -42 -14 -83 -31z m-80 -721 c0 -48
-29 -89 -107 -150 -98 -78 -132 -102 -137 -97 -10 9 24 122 48 163 29 49 69
82 125 102 59 21 71 18 71 -18z m-529 -198 c79 -41 152 -139 166 -224 7 -47
-3 -46 -86 7 -91 60 -161 151 -161 212 0 32 25 33 81 5z m609 -185 c0 -14 -11
-48 -25 -75 -30 -59 -288 -337 -293 -315 -6 26 37 176 62 219 36 61 121 142
180 170 65 32 76 32 76 1z m-685 -244 c50 -23 125 -103 159 -169 26 -51 62
-189 53 -199 -3 -3 -44 33 -90 78 -98 98 -207 255 -207 299 0 16 42 11 85 -9z"/>
</g>
</svg>
